
<svg fill="currentColor" width='50' version="1.1" id="Layer_1" xmlns="http://www.w3.org/2000/svg" xmlns:xlink="http://www.w3.org/1999/xlink" 
	 viewBox="0 0 512 512" xml:space="preserve">
<g>
	<g>
		<path d="M448.596,329.999c-25.273-26.645-55.64-46.029-87.621-56.586c31.865-28.738,51.928-70.322,51.928-116.51
			C412.903,70.387,342.516,0,256,0S99.097,70.387,99.097,156.903c0,46.187,20.064,87.772,51.928,116.511
			c-31.984,10.557-62.348,29.94-87.621,56.586C22.518,373.106,0,428.944,0,487.226V512h512v-24.774
			C512,428.944,489.482,373.106,448.596,329.999z M148.645,156.903c0-59.195,48.159-107.355,107.355-107.355
			c59.195,0,107.355,48.159,107.355,107.355c0,59.195-48.159,107.355-107.355,107.355
			C196.805,264.258,148.645,216.099,148.645,156.903z M51.292,462.452c12.298-86.569,87.398-148.645,155.159-148.645h99.097
			c67.759,0,142.861,62.076,155.159,148.645H51.292z"/>
	</g>
</g>
</svg>